<svg width="126" height="44" viewBox="0 0 126 44" fill="none" xmlns="http://www.w3.org/2000/svg">
<path d="M53.4823 42.0236H48.8694V0.0322266H65.6034C66.0917 0.0361718 66.5791 0.0744258 67.0614 0.146726C68.322 0.291522 69.5442 0.652342 70.6683 1.21154C71.7733 1.76224 72.7602 2.50305 73.5784 3.39604C74.431 4.33603 75.0895 5.41935 75.5194 6.58955C76.4578 9.30031 76.4476 12.2252 75.4904 14.9301C75.0322 16.1461 74.3659 17.2825 73.5183 18.2939C72.7075 19.2562 71.7222 20.0742 70.6084 20.7094C69.5161 21.3363 68.3146 21.7743 67.0603 22.0032C66.5293 22.0901 65.9922 22.1389 65.4534 22.149C64.8274 22.1679 63.9454 22.1755 62.8164 22.1755L77.1573 40.353L73.5743 43.0032L53.5493 17.9806H62.4823C62.6823 17.9806 62.9824 17.9721 63.3634 17.9512C63.7444 17.9304 64.1523 17.9134 64.5793 17.8954C64.9863 17.8784 65.392 17.8396 65.7943 17.7791C66.1793 17.7232 66.4734 17.675 66.6754 17.6362C68.093 17.1767 69.3249 16.3122 70.2014 15.162C71.1622 13.8899 71.654 12.3539 71.6013 10.791C71.6629 9.24446 71.1463 7.72694 70.1423 6.50532C69.1722 5.3753 67.778 4.64409 66.2513 4.46466C65.9336 4.38853 65.6072 4.34998 65.2794 4.35005H53.4884L53.4823 42.0236Z" fill="#008779"/>
<path d="M23.3813 43.6425C17.1819 43.6847 11.2181 41.396 6.8003 37.2792C4.63032 35.2487 2.91104 32.8283 1.74329 30.1601C0.575547 27.4918 -0.0170385 24.6295 0.000372833 21.7414C0.000372833 9.55709 10.2713 0.0126719 23.3823 0.0126719C29.286 -0.178679 35.0382 1.80322 39.4303 5.54205L39.6514 5.72102L36.2974 9.86669L36.0503 9.65838C32.567 6.64893 28.0362 4.95686 23.3203 4.90415C20.9575 4.88407 18.6138 5.30676 16.4243 6.14782C14.2348 6.98889 12.2429 8.23166 10.5631 9.80465C8.88336 11.3776 7.54903 13.2497 6.63709 15.313C5.72515 17.3762 5.25354 19.5899 5.24952 21.8264C5.24549 24.0629 5.70914 26.2781 6.61365 28.3442C7.51816 30.4104 8.8457 32.2868 10.5198 33.8652C12.1939 35.4436 14.1814 36.6928 16.3678 37.541C18.5543 38.3891 20.8964 38.8193 23.2593 38.8068C28.1611 38.6744 32.8405 36.8412 36.4073 33.6559L36.6443 33.443L40.0753 37.3388L39.8644 37.5281C35.3626 41.4325 29.4872 43.612 23.3813 43.6425Z" fill="#008779"/>
<path d="M108.841 43.6425C102.642 43.6846 96.6788 41.3958 92.2612 37.2792C90.0913 35.2487 88.3719 32.8283 87.2041 30.1601C86.0364 27.4918 85.4439 24.6295 85.4613 21.7414C85.4613 9.5571 95.7323 0.0126844 108.843 0.0126844C114.747 -0.178766 120.499 1.80314 124.891 5.54206L125.112 5.72103L121.758 9.8667L121.511 9.65839C118.028 6.64916 113.498 4.9571 108.782 4.90417C106.419 4.88409 104.076 5.30677 101.886 6.14783C99.6967 6.9889 97.7048 8.23167 96.025 9.80466C94.3453 11.3777 93.0109 13.2498 92.099 15.313C91.1871 17.3763 90.7155 19.5899 90.7114 21.8264C90.7074 24.063 91.1711 26.2781 92.0756 28.3443C92.9801 30.4104 94.3076 32.2868 95.9817 33.8652C97.6558 35.4436 99.6433 36.6928 101.83 37.541C104.016 38.3891 106.358 38.8193 108.721 38.8068C113.623 38.6746 118.303 36.8413 121.869 33.656L122.106 33.443L125.537 37.3388L125.326 37.5281C120.824 41.433 114.948 43.6125 108.841 43.6425Z" fill="#008779"/>
</svg>
