<svg width="221" height="67" viewBox="0 0 221 67" fill="none" xmlns="http://www.w3.org/2000/svg">
<g clip-path="url(#clip0)">
<path d="M75.2811 57.95H74.4661V50.1309H79.1361L78.7291 50.9309H75.2811V53.5869H78.4621V54.3868H75.2811V57.95Z" fill="#303030"/>
<path d="M83.506 58.0469C83.1545 58.049 82.8051 57.9929 82.472 57.8809C82.1576 57.7759 81.8642 57.6165 81.605 57.4099C81.0858 56.9947 80.7402 56.4005 80.636 55.7439C80.6197 55.6448 80.6124 55.5443 80.614 55.4438V50.1309H81.428V55.3849C81.4257 55.4694 81.4328 55.5539 81.449 55.6368C81.4828 55.8659 81.5613 56.0861 81.68 56.2849C81.7976 56.4806 81.9482 56.6545 82.125 56.799C82.3103 56.9487 82.5215 57.0631 82.748 57.1368C82.9907 57.2165 83.2446 57.2563 83.5 57.2549C83.7575 57.2572 84.0135 57.2157 84.257 57.132C84.4792 57.0553 84.6866 56.941 84.87 56.7939C85.0462 56.6502 85.1952 56.4761 85.31 56.2799C85.4299 56.0759 85.5084 55.8502 85.541 55.6158C85.5566 55.5328 85.5639 55.4484 85.563 55.3639V50.132H86.376V55.4449C86.3774 55.5454 86.3703 55.6456 86.355 55.7449C86.3154 56.0757 86.2078 56.3947 86.039 56.6819C85.8737 56.9605 85.6596 57.2071 85.407 57.4099C85.1478 57.6165 84.8544 57.7759 84.54 57.8809C84.2069 57.9929 83.8575 58.049 83.506 58.0469Z" fill="#303030"/>
<path d="M90.8441 57.95H90.0291V50.9449H87.9412V50.1309H93.1252L92.7252 50.9449H90.8401L90.8441 57.95Z" fill="#303030"/>
<path d="M97.3461 58.0469C96.9947 58.0491 96.6453 57.993 96.3121 57.8809C95.9974 57.7759 95.7036 57.6166 95.4441 57.4099C94.9252 56.9944 94.5797 56.4004 94.4751 55.7439C94.4593 55.6447 94.4523 55.5443 94.4541 55.4438V50.1309H95.2681V55.3849C95.2652 55.4694 95.2723 55.554 95.2891 55.6368C95.3225 55.866 95.401 56.0863 95.5201 56.2849C95.7609 56.6892 96.1405 56.992 96.5881 57.1368C96.8308 57.2165 97.0847 57.2564 97.3401 57.2549C97.5976 57.2572 97.8536 57.2157 98.0971 57.132C98.3191 57.0555 98.5262 56.9411 98.7091 56.7939C98.8857 56.6504 99.0351 56.4763 99.1501 56.2799C99.2697 56.0758 99.3482 55.8501 99.3811 55.6158C99.3964 55.5327 99.4034 55.4484 99.4021 55.3639V50.132H100.216V55.4449C100.218 55.5454 100.21 55.6457 100.194 55.7449C100.155 56.0759 100.048 56.3951 99.8781 56.6819C99.713 56.9606 99.4989 57.2073 99.2461 57.4099C98.9865 57.6164 98.6928 57.7758 98.3781 57.8809C98.0456 57.9927 97.6969 58.0488 97.3461 58.0469Z" fill="#303030"/>
<path d="M103.119 57.95H102.305V50.1309H105.255C105.341 50.1314 105.427 50.1385 105.512 50.1519C105.735 50.1792 105.95 50.247 106.148 50.3519C106.343 50.4546 106.517 50.5926 106.661 50.7589C106.811 50.9338 106.927 51.1353 107.003 51.3529C107.169 51.8576 107.167 52.4022 106.998 52.9059C106.917 53.1322 106.8 53.3436 106.65 53.5319C106.483 53.7508 106.268 53.9291 106.022 54.0535C105.776 54.1778 105.505 54.2449 105.229 54.2499C105.119 54.2499 104.964 54.2499 104.764 54.2499L107.292 57.6349L106.66 58.1279L103.131 53.4679H104.705C104.741 53.4679 104.793 53.4679 104.86 53.4629L105.074 53.4529C105.146 53.4499 105.217 53.4429 105.288 53.4319C105.356 53.4219 105.408 53.4119 105.443 53.4049C105.693 53.3197 105.91 53.159 106.065 52.9449C106.234 52.7079 106.321 52.4218 106.311 52.1309C106.323 51.8422 106.232 51.5589 106.054 51.3309C105.883 51.1203 105.637 50.9841 105.368 50.9509C105.312 50.9369 105.255 50.9299 105.197 50.9299H103.119V57.95Z" fill="#303030"/>
<path d="M113.358 57.95H108.968V50.1309H113.627L113.22 50.9309H109.782V53.5869H113.167V54.3868H109.782V57.1399H113.358V57.95Z" fill="#303030"/>
<path d="M123.041 58.0469C122.495 58.0505 121.954 57.9449 121.45 57.736C120.475 57.337 119.698 56.5688 119.287 55.5989C118.97 54.86 118.883 54.0424 119.037 53.2532C119.192 52.464 119.582 51.74 120.155 51.1759C120.529 50.8114 120.971 50.5236 121.455 50.3289C121.96 50.1238 122.501 50.0202 123.046 50.0239C123.589 50.0082 124.13 50.101 124.637 50.2969C125.074 50.482 125.481 50.7329 125.842 51.0409L125.317 51.7269C125.01 51.4584 124.664 51.2397 124.289 51.0789C123.893 50.909 123.467 50.8232 123.036 50.8269C122.603 50.8236 122.173 50.9073 121.772 51.0729C121.39 51.2304 121.042 51.4618 120.749 51.7539C120.459 52.0449 120.226 52.3883 120.063 52.7659C119.894 53.1616 119.808 53.5884 119.812 54.0189C119.809 54.4529 119.894 54.8831 120.063 55.283C120.225 55.6659 120.458 56.0147 120.749 56.3109C121.04 56.605 121.386 56.8397 121.766 57.0019C122.164 57.1714 122.593 57.2572 123.025 57.2539C123.464 57.2517 123.898 57.1588 124.3 56.981C124.699 56.8135 125.065 56.5764 125.381 56.2809L125.917 56.9239C125.134 57.6439 124.11 58.0451 123.046 58.0489L123.041 58.0469Z" fill="#303030"/>
<path d="M130.358 58.0469C130.007 58.0491 129.657 57.993 129.324 57.8809C129.009 57.7759 128.716 57.6166 128.456 57.4099C127.937 56.9944 127.592 56.4004 127.487 55.7439C127.471 55.6447 127.464 55.5443 127.466 55.4438V50.1309H128.28V55.3849C128.277 55.4695 128.285 55.554 128.302 55.6368C128.335 55.866 128.414 56.0864 128.533 56.2849C128.774 56.6892 129.153 56.992 129.601 57.1368C129.844 57.2165 130.098 57.2564 130.353 57.2549C130.611 57.2573 130.867 57.2157 131.11 57.132C131.332 57.0554 131.539 56.9411 131.722 56.7939C131.898 56.6503 132.047 56.4762 132.162 56.2799C132.282 56.0759 132.36 55.8502 132.393 55.6158C132.408 55.5327 132.415 55.4484 132.414 55.3639V50.132H133.228V55.4449C133.23 55.5454 133.223 55.6457 133.207 55.7449C133.168 56.0758 133.061 56.395 132.891 56.6819C132.726 56.9607 132.512 57.2073 132.259 57.4099C132 57.6165 131.706 57.7759 131.391 57.8809C131.058 57.9929 130.709 58.049 130.358 58.0469Z" fill="#303030"/>
<path d="M136.132 57.95H135.318V50.1309H138.267C138.353 50.1314 138.439 50.1384 138.524 50.1519C138.747 50.1792 138.962 50.247 139.16 50.3519C139.355 50.4545 139.529 50.5925 139.673 50.7589C139.823 50.9338 139.939 51.1353 140.015 51.3529C140.181 51.8576 140.179 52.4023 140.01 52.9059C139.929 53.1321 139.812 53.3435 139.663 53.5319C139.495 53.7509 139.28 53.9293 139.034 54.0536C138.788 54.1779 138.517 54.245 138.241 54.2499C138.131 54.2499 137.975 54.2499 137.776 54.2499L140.304 57.6349L139.672 58.1279L136.143 53.4679H137.717C137.753 53.4679 137.805 53.4679 137.872 53.4629L138.086 53.4529C138.158 53.4499 138.229 53.4428 138.3 53.4319C138.368 53.4219 138.42 53.4119 138.455 53.4049C138.705 53.3195 138.922 53.1588 139.076 52.9449C139.245 52.708 139.332 52.4218 139.322 52.1309C139.333 51.8422 139.242 51.559 139.065 51.3309C138.894 51.1205 138.648 50.9843 138.379 50.9509C138.323 50.9369 138.266 50.9299 138.208 50.9299H136.132V57.95Z" fill="#303030"/>
<path d="M142.794 57.95H141.98V50.1309H144.929C145.015 50.1315 145.101 50.1385 145.186 50.1519C145.408 50.1792 145.624 50.247 145.822 50.3519C146.017 50.4548 146.191 50.5927 146.335 50.7589C146.485 50.9338 146.601 51.1353 146.677 51.3529C146.843 51.8576 146.841 52.4023 146.672 52.9059C146.591 53.1321 146.474 53.3435 146.325 53.5319C146.182 53.711 146.008 53.8635 145.812 53.9819C145.619 54.0986 145.408 54.1801 145.187 54.2229C145.093 54.2389 144.998 54.2479 144.903 54.2499C144.793 54.2499 144.638 54.2499 144.438 54.2499L146.966 57.6349L146.334 58.1279L142.805 53.4679H144.379C144.415 53.4679 144.467 53.4679 144.535 53.4629L144.749 53.4529C144.821 53.4499 144.893 53.4429 144.964 53.4319C145.031 53.4219 145.083 53.4119 145.119 53.4049C145.369 53.32 145.587 53.1592 145.741 52.9449C145.91 52.708 145.997 52.4219 145.988 52.1309C145.999 51.8421 145.908 51.5588 145.73 51.3309C145.559 51.1206 145.314 50.9844 145.045 50.9509C144.989 50.9368 144.931 50.9298 144.873 50.9299H142.795L142.794 57.95Z" fill="#303030"/>
<path d="M153.034 57.95H148.642V50.1309H153.302L152.895 50.9309H149.457V53.5869H152.841V54.3868H149.457V57.1399H153.034V57.95Z" fill="#303030"/>
<path d="M155.594 57.9509H154.784V49.8958L160.44 56.0329V50.1329H161.254V58.1878L155.598 52.0289L155.594 57.9509Z" fill="#303030"/>
<path d="M167.119 58.0469C166.573 58.0505 166.032 57.9448 165.528 57.7359C164.553 57.3369 163.776 56.5687 163.365 55.5989C163.047 54.86 162.96 54.0424 163.115 53.2532C163.27 52.464 163.66 51.74 164.233 51.1759C164.607 50.8114 165.049 50.5236 165.533 50.3288C166.038 50.1238 166.579 50.0203 167.124 50.0239C167.667 50.0083 168.208 50.101 168.715 50.2969C169.151 50.4824 169.555 50.7333 169.915 51.0409L169.391 51.7269C169.084 51.4585 168.737 51.2398 168.363 51.0788C167.967 50.909 167.541 50.8232 167.11 50.8269C166.676 50.8237 166.247 50.9073 165.846 51.0729C165.463 51.2303 165.116 51.4618 164.823 51.7539C164.532 52.0449 164.3 52.3882 164.137 52.7659C163.967 53.1615 163.881 53.5883 163.885 54.0189C163.882 54.453 163.968 54.8832 164.137 55.2829C164.299 55.6659 164.531 56.0147 164.823 56.3109C165.114 56.605 165.459 56.8397 165.84 57.0019C166.238 57.1715 166.666 57.2572 167.099 57.2539C167.538 57.2517 167.972 57.1588 168.374 56.9809C168.773 56.8136 169.14 56.5765 169.456 56.2809L169.991 56.9239C169.208 57.6438 168.184 58.045 167.12 58.0489L167.119 58.0469Z" fill="#303030"/>
<path d="M174.338 57.9498H173.524V54.6399L171.082 50.2909L171.799 49.8729L173.92 53.6859L176.073 49.8729L176.78 50.2909L174.338 54.6289V57.9498Z" fill="#303030"/>
<path d="M186.282 58.0469C185.744 58.0506 185.211 57.9409 184.718 57.7248C184.244 57.5185 183.813 57.2244 183.448 56.8579C183.085 56.4896 182.796 56.055 182.597 55.5779C182.287 54.8439 182.203 54.0345 182.354 53.2524C182.506 52.4704 182.887 51.751 183.448 51.1859C183.813 50.8229 184.244 50.5335 184.718 50.3338C185.213 50.125 185.745 50.0193 186.282 50.0229C186.976 50.0158 187.661 50.1738 188.282 50.4839C188.881 50.7846 189.405 51.2167 189.814 51.7479L189.114 52.241C188.787 51.7982 188.36 51.4391 187.867 51.1933C187.375 50.9476 186.831 50.822 186.281 50.8269C185.856 50.8249 185.436 50.9107 185.046 51.0788C184.281 51.4046 183.672 52.0139 183.346 52.7789C183.177 53.1711 183.092 53.594 183.095 54.0209C183.092 54.4516 183.178 54.8783 183.346 55.2749C183.507 55.6577 183.74 56.0065 184.031 56.3028C184.322 56.5989 184.667 56.8366 185.047 57.0029C185.436 57.1747 185.857 57.2622 186.282 57.2599C186.691 57.2666 187.097 57.1883 187.474 57.0299C187.808 56.8895 188.114 56.6881 188.374 56.4359C188.615 56.2007 188.811 55.9231 188.951 55.6169C189.085 55.3329 189.163 55.0256 189.181 54.7119H186.032L186.439 53.9118H190.049V54.2009C190.049 54.6851 189.964 55.1654 189.797 55.6199C189.633 56.0733 189.384 56.4913 189.063 56.8509C188.731 57.219 188.329 57.5159 187.879 57.7239C187.377 57.9489 186.832 58.0592 186.282 58.0469Z" fill="#303030"/>
<path d="M192.677 57.95H191.862V50.1309H194.812C194.898 50.1315 194.983 50.1385 195.068 50.1519C195.29 50.1792 195.506 50.2471 195.704 50.3519C195.899 50.4548 196.073 50.5928 196.217 50.7589C196.367 50.934 196.483 51.1354 196.559 51.3529C196.725 51.8577 196.723 52.4024 196.553 52.9059C196.473 53.1322 196.355 53.3437 196.206 53.5319C196.063 53.7112 195.89 53.8637 195.693 53.9819C195.501 54.0986 195.289 54.1802 195.068 54.2229C194.975 54.2388 194.88 54.2479 194.785 54.2499C194.674 54.2499 194.519 54.2499 194.32 54.2499L196.848 57.6349L196.216 58.1279L192.687 53.4679H194.261C194.297 53.4679 194.348 53.4679 194.416 53.4629L194.63 53.4529C194.702 53.4498 194.773 53.4428 194.844 53.4319C194.912 53.4219 194.963 53.4119 194.999 53.4049C195.249 53.3197 195.466 53.159 195.62 52.9449C195.789 52.7079 195.876 52.4218 195.866 52.1309C195.877 51.8422 195.786 51.559 195.609 51.3309C195.438 51.1207 195.193 50.9846 194.924 50.9509C194.868 50.9368 194.81 50.9298 194.752 50.9299H192.674L192.677 57.95Z" fill="#303030"/>
<path d="M202.284 58.0469C201.742 58.0513 201.205 57.9477 200.704 57.7419C200.228 57.5478 199.797 57.2601 199.434 56.8959C199.074 56.5302 198.787 56.0991 198.588 55.6258C198.277 54.8864 198.192 54.0714 198.345 53.2838C198.498 52.4962 198.88 51.7716 199.445 51.2019C199.812 50.8364 200.244 50.5439 200.72 50.3399C201.214 50.1276 201.747 50.02 202.284 50.0239C202.813 50.0206 203.336 50.1221 203.825 50.3224C204.314 50.5227 204.759 50.8178 205.133 51.1909C205.5 51.5586 205.792 51.9931 205.995 52.4709C206.208 52.9703 206.315 53.5081 206.311 54.0509C206.315 54.5884 206.207 55.1209 205.995 55.6148C205.684 56.3399 205.165 56.9571 204.505 57.3896C203.845 57.8221 203.072 58.0507 202.283 58.0469H202.284ZM202.273 57.2539C202.697 57.2561 203.116 57.1703 203.505 57.0019C204.27 56.676 204.879 56.0668 205.205 55.3019C205.373 54.9112 205.459 54.4902 205.457 54.0649C205.46 53.6355 205.378 53.2097 205.216 52.8119C204.905 52.0376 204.301 51.4179 203.534 51.0879C203.138 50.9147 202.709 50.8272 202.276 50.8309C201.852 50.8285 201.432 50.9161 201.044 51.0879C200.665 51.2543 200.322 51.492 200.032 51.7879C199.742 52.0852 199.509 52.4337 199.346 52.8159C199.177 53.2102 199.091 53.635 199.094 54.0639C199.09 54.9109 199.421 55.725 200.015 56.3288C200.304 56.6208 200.648 56.8524 201.027 57.0099C201.422 57.1744 201.846 57.2574 202.274 57.2539H202.273Z" fill="#303030"/>
<path d="M211.067 58.0469C210.716 58.049 210.366 57.9929 210.033 57.8809C209.719 57.7758 209.425 57.6164 209.166 57.4099C208.647 56.9947 208.301 56.4005 208.197 55.7439C208.181 55.6447 208.174 55.5443 208.176 55.4438V50.1309H208.99V55.3849C208.987 55.4694 208.994 55.5539 209.011 55.6368C209.045 55.866 209.123 56.0863 209.242 56.2849C209.359 56.4808 209.51 56.6548 209.687 56.799C209.872 56.9489 210.083 57.0633 210.31 57.1368C210.553 57.2165 210.807 57.2564 211.062 57.2549C211.32 57.2573 211.576 57.2157 211.819 57.132C212.041 57.0555 212.249 56.9412 212.432 56.7939C212.608 56.6502 212.758 56.4761 212.873 56.2799C212.992 56.0756 213.071 55.8501 213.104 55.6158C213.119 55.5327 213.126 55.4484 213.125 55.3639V50.132H213.939V55.4449C213.941 55.5454 213.934 55.6457 213.918 55.7449C213.879 56.0758 213.771 56.3949 213.602 56.6819C213.437 56.9606 213.223 57.2073 212.97 57.4099C212.711 57.6166 212.417 57.7759 212.102 57.8809C211.769 57.9931 211.419 58.0492 211.067 58.0469Z" fill="#303030"/>
<path d="M216.841 57.95H216.027V50.1309H218.592C218.662 50.1304 218.731 50.134 218.8 50.1419C218.861 50.1489 218.941 50.16 219.04 50.174C219.512 50.2227 219.947 50.4534 220.253 50.8172C220.558 51.181 220.709 51.6493 220.675 52.123C220.678 52.3891 220.635 52.6537 220.547 52.905C220.466 53.1321 220.347 53.3438 220.195 53.5309C220.05 53.7097 219.874 53.862 219.677 53.981C219.485 54.0977 219.273 54.1793 219.052 54.222C218.96 54.2381 218.867 54.2488 218.774 54.254C218.667 54.261 218.567 54.2649 218.474 54.2649H216.84L216.841 57.95ZM216.841 50.934V53.451H218.258C218.294 53.451 218.345 53.451 218.413 53.446L218.627 53.435C218.699 53.4318 218.77 53.4243 218.841 53.4129C218.909 53.4019 218.957 53.3939 218.985 53.3869C219.234 53.3021 219.452 53.1456 219.612 52.9369C219.785 52.7067 219.874 52.4245 219.864 52.1369C219.876 51.8522 219.785 51.5727 219.607 51.3499C219.432 51.1443 219.188 51.0093 218.921 50.9699C218.869 50.9565 218.815 50.9475 218.761 50.9429C218.711 50.9396 218.657 50.9379 218.6 50.9379L216.841 50.934Z" fill="#303030"/>
<path d="M74.4709 43.363V13.914H92.348L90.632 17.301H77.8929V26.767H89.711V30.153H77.8929V43.364L74.4709 43.363Z" fill="#303030"/>
<path d="M116.713 43.721C112.651 43.7502 108.743 42.166 105.848 39.3161C103.168 36.4321 101.698 32.6283 101.743 28.6913C101.789 24.7544 103.345 20.9853 106.091 18.1636C108.837 15.3419 112.562 13.6835 116.496 13.5312C120.431 13.3788 124.273 14.7442 127.229 17.345L127.374 17.469L125.174 20.339L125.012 20.195C122.73 18.1114 119.761 16.9397 116.671 16.903C113.558 16.8977 110.571 18.1292 108.367 20.3263C106.162 22.5235 104.92 25.5065 104.915 28.6191C104.91 31.7316 106.141 34.7188 108.338 36.9235C110.535 39.1282 113.518 40.3697 116.631 40.375C119.843 40.2834 122.91 39.0142 125.247 36.809L125.403 36.662L127.651 39.362L127.513 39.492C124.563 42.1932 120.713 43.7006 116.713 43.721Z" fill="#303030"/>
<path d="M152.114 43.721C148.11 43.7006 144.277 42.0929 141.457 39.2505C138.637 36.4081 137.06 32.563 137.071 28.559C137.057 26.5797 137.437 24.6176 138.189 22.7864C138.94 20.9552 140.047 19.2917 141.447 17.8921C142.847 16.4925 144.51 15.3849 146.341 14.6337C148.173 13.8825 150.135 13.5026 152.114 13.516C154.679 13.4987 157.214 14.0751 159.519 15.2001C161.825 16.3251 163.839 17.9683 165.404 20.001L165.532 20.167L162.612 22.233L162.495 22.073C161.292 20.4567 159.725 19.1464 157.922 18.2482C156.118 17.35 154.129 16.8891 152.114 16.903C149.001 16.903 146.016 18.1394 143.815 20.3403C141.614 22.5413 140.378 25.5265 140.378 28.639C140.378 31.7516 141.614 34.7367 143.815 36.9376C146.016 39.1386 149.001 40.375 152.114 40.375C158.296 40.375 162.368 35.709 162.684 31.308H150.871L152.587 27.921H166.321V29.1961C166.321 36.2371 161.342 43.721 152.114 43.721Z" fill="#303030"/>
<path d="M30.7881 34.561V66.1481L58.1431 50.355V18.769L30.7881 34.561ZM51.7351 46.655L37.1961 55.05V38.261L51.7351 29.8671V46.655Z" fill="#00B09E"/>
<path d="M27.354 34.561L-0.000976562 18.7681V50.355L27.354 66.1481V34.561ZM20.946 55.05L6.40703 46.655V29.8661L20.946 38.26V55.05Z" fill="#00B09E"/>
<path d="M29.0711 6.10352e-05L1.71606 15.793L29.0711 31.586L56.4251 15.793L29.0711 6.10352e-05ZM29.0711 24.188L14.5311 15.794L29.0711 7.39899L43.6101 15.794L29.0711 24.188Z" fill="#00D6BF"/>
<path d="M10.366 22.77L12.083 21.778L18.49 25.478L16.773 26.469V40.6689L20.945 43.078V50.478L10.365 44.37L10.366 22.77ZM18.491 18.079L24.899 21.7789L29.071 19.37L41.371 26.47V28.453L47.778 24.7529V22.77L29.078 11.97L18.491 18.079ZM27.354 46.7789V54.179L29.071 55.171L47.771 44.371V32.152L41.364 35.8519V40.6699L29.064 47.77L27.354 46.7789Z" fill="#008779"/>
</g>
<defs>
<clipPath id="clip0">
<rect width="220.676" height="66.147" fill="white"/>
</clipPath>
</defs>
</svg>
