<svg width="341" height="69" viewBox="0 0 341 69" fill="none" xmlns="http://www.w3.org/2000/svg">
<path d="M209.106 31.9272H208.288V24.4897H209.106V31.9272Z" fill="#303030"/>
<path d="M211.517 31.9268H210.699V24.2603L216.383 30.0983V24.4846H217.201V32.1465L211.517 26.2887V31.9268Z" fill="#303030"/>
<path d="M221.281 31.9272H220.463V25.263H218.363V24.4888H223.573L223.173 25.263H221.279L221.281 31.9272Z" fill="#303030"/>
<path d="M228.892 31.9272H224.478V24.4897H229.161L228.752 25.2536H225.296V27.7797H228.696V28.5444H225.296V31.1624H228.896L228.892 31.9272Z" fill="#303030"/>
<path d="M231.034 31.9273H230.216V24.4897H233.18C233.266 24.4905 233.353 24.4971 233.438 24.5096C233.662 24.5354 233.879 24.5995 234.078 24.6989C234.274 24.7966 234.449 24.9279 234.594 25.086C234.745 25.2532 234.862 25.4459 234.938 25.6539C235.105 26.1341 235.103 26.6525 234.932 27.1314C234.851 27.3471 234.733 27.5486 234.583 27.7277C234.439 27.8985 234.265 28.0437 234.067 28.1565C233.874 28.2673 233.661 28.3448 233.439 28.3854C233.345 28.4009 233.25 28.4094 233.154 28.411C233.043 28.4141 232.888 28.4157 232.687 28.4157L235.228 31.6338L234.593 32.1023L231.046 27.6699H232.629C232.665 27.6699 232.717 27.6699 232.785 27.6643L233 27.6539C233.072 27.6513 233.144 27.6446 233.215 27.634C233.282 27.6239 233.334 27.6153 233.371 27.6083C233.622 27.5271 233.841 27.3741 233.996 27.1702C234.166 26.9448 234.253 26.6727 234.243 26.396C234.253 26.1226 234.162 25.8545 233.984 25.6388C233.812 25.4384 233.565 25.3089 233.295 25.2773C233.239 25.2637 233.181 25.2566 233.123 25.2563H231.035L231.034 31.9273Z" fill="#303030"/>
<path d="M237.299 31.9268H236.484V24.2603L242.168 30.0983V24.4846H242.986V32.1465L237.302 26.2887L237.299 31.9268Z" fill="#303030"/>
<path d="M246.105 29.4815L244.867 32.1411L244.145 31.8458L247.665 24.1631L251.207 31.8458L250.464 32.1411L249.237 29.4815H246.105ZM247.666 26.0893L246.45 28.6978H248.872L247.666 26.0893Z" fill="#303030"/>
<path d="M254.748 31.9272H253.93V25.263H251.83V24.4888H257.04L256.64 25.263H254.745L254.748 31.9272Z" fill="#303030"/>
<path d="M258.73 31.9272H257.912V24.4897H258.73V31.9272Z" fill="#303030"/>
<path d="M264.103 32.018C263.559 32.0219 263.019 31.9231 262.515 31.7274C262.037 31.5426 261.604 31.2691 261.24 30.9229C260.878 30.5751 260.589 30.1653 260.389 29.7152C260.076 29.012 259.991 28.2366 260.144 27.4874C260.297 26.7382 260.682 26.049 261.25 25.5072C261.618 25.1594 262.053 24.8809 262.531 24.6866C263.027 24.4846 263.563 24.3821 264.103 24.3856C264.634 24.3832 265.16 24.4802 265.652 24.6708C266.143 24.8615 266.59 25.1421 266.966 25.4967C267.334 25.8465 267.628 26.2597 267.832 26.7139C268.046 27.189 268.154 27.7006 268.15 28.2169C268.154 28.7283 268.045 29.2349 267.832 29.7048C267.519 30.3944 266.998 30.9815 266.335 31.3929C265.672 31.8043 264.895 32.0217 264.102 32.018H264.103ZM264.092 31.2608C264.518 31.2632 264.939 31.1816 265.33 31.0213C266.099 30.7101 266.71 30.1294 267.036 29.4009C267.205 29.0294 267.291 28.629 267.289 28.2245C267.292 27.8159 267.209 27.4107 267.047 27.032C266.735 26.2952 266.127 25.7054 265.357 25.3917C264.958 25.2268 264.527 25.1433 264.092 25.1465C263.666 25.1443 263.244 25.2279 262.854 25.3917C262.473 25.5503 262.128 25.7769 261.837 26.059C261.545 26.3418 261.312 26.6733 261.148 27.0367C260.978 27.4116 260.892 27.8157 260.895 28.2236C260.892 28.631 260.976 29.0347 261.143 29.4104C261.301 29.7714 261.531 30.1002 261.821 30.3787C262.111 30.6562 262.457 30.8763 262.838 31.0261C263.235 31.1849 263.661 31.2661 264.092 31.2647V31.2608Z" fill="#303030"/>
<path d="M270.411 31.9268H269.593V24.2603L275.277 30.0983V24.4846H276.095V32.1465L270.411 26.2887V31.9268Z" fill="#303030"/>
<path d="M279.217 29.4815L277.979 32.1411L277.258 31.8458L280.778 24.1631L284.32 31.8458L283.577 32.1411L282.35 29.4815H279.217ZM280.778 26.0893L279.562 28.6978H281.984L280.778 26.0893Z" fill="#303030"/>
<path d="M289.002 31.9272H285.456V24.4897H286.274V31.1634H289.385L289.002 31.9272Z" fill="#303030"/>
<path d="M297.829 32.0178C297.28 32.0215 296.736 31.9211 296.229 31.7225C295.25 31.343 294.468 30.6126 294.055 29.6904C293.736 28.9875 293.648 28.2097 293.804 27.4588C293.959 26.7079 294.351 26.0191 294.927 25.4824C295.301 25.1365 295.742 24.8628 296.227 24.6769C296.735 24.4816 297.279 24.3829 297.827 24.3863C298.373 24.3717 298.917 24.4602 299.427 24.6466C299.866 24.823 300.275 25.0618 300.638 25.3546L300.11 26.0067C299.802 25.7513 299.453 25.5434 299.077 25.3906C298.679 25.2289 298.25 25.1473 297.817 25.1511C297.381 25.1482 296.95 25.2281 296.547 25.3858C296.163 25.5357 295.813 25.7556 295.519 26.0332C295.227 26.3098 294.994 26.6366 294.831 26.9959C294.66 27.3725 294.574 27.7786 294.578 28.1884C294.575 28.6012 294.661 29.0102 294.831 29.3904C294.993 29.7549 295.226 30.087 295.519 30.3691C295.812 30.6487 296.159 30.8718 296.542 31.0259C296.942 31.1873 297.372 31.2689 297.807 31.2654C298.248 31.2633 298.684 31.175 299.088 31.006C299.489 30.8464 299.857 30.6205 300.175 30.3388L300.714 30.9502C299.927 31.6345 298.898 32.0159 297.829 32.0198V32.0178Z" fill="#303030"/>
<path d="M305.623 32.018C305.079 32.0219 304.539 31.9231 304.035 31.7274C303.557 31.5426 303.124 31.2691 302.76 30.9229C302.398 30.5751 302.109 30.1653 301.909 29.7152C301.596 29.0119 301.511 28.2366 301.664 27.4874C301.817 26.7382 302.202 26.049 302.77 25.5072C303.138 25.1594 303.573 24.8809 304.051 24.6866C304.547 24.4846 305.083 24.3821 305.623 24.3856C306.154 24.3832 306.68 24.4802 307.172 24.6708C307.663 24.8615 308.11 25.1421 308.486 25.4967C308.854 25.8464 309.149 26.2596 309.353 26.7139C309.567 27.189 309.675 27.7006 309.671 28.2169C309.675 28.7283 309.566 29.2349 309.353 29.7048C309.04 30.3944 308.519 30.9815 307.856 31.3929C307.193 31.8043 306.416 32.0217 305.623 32.018ZM305.612 31.2608C306.038 31.2632 306.459 31.1816 306.85 31.0213C307.619 30.7104 308.23 30.1296 308.556 29.4009C308.725 29.0294 308.811 28.629 308.809 28.2245C308.811 27.8159 308.729 27.4107 308.567 27.032C308.255 26.2951 307.647 25.7053 306.877 25.3917C306.478 25.2268 306.047 25.1433 305.612 25.1465C305.186 25.1443 304.764 25.2279 304.374 25.3917C303.993 25.5503 303.648 25.7769 303.357 26.059C303.065 26.3418 302.832 26.6733 302.668 27.0367C302.498 27.4116 302.412 27.8157 302.415 28.2236C302.412 29.029 302.745 29.8031 303.341 30.3778C303.631 30.6553 303.977 30.8753 304.358 31.0251C304.755 31.1843 305.181 31.2658 305.612 31.2647V31.2608Z" fill="#303030"/>
<path d="M314.019 32.0187C313.666 32.0207 313.315 31.9673 312.98 31.8607C312.664 31.761 312.368 31.6092 312.108 31.4121C311.586 31.0172 311.239 30.4523 311.134 29.8278C311.118 29.7339 311.111 29.6388 311.112 29.5438V24.4907H311.93V29.488C311.927 29.5683 311.934 29.6486 311.951 29.7274C311.985 29.9451 312.064 30.1545 312.183 30.3435C312.301 30.5299 312.453 30.6955 312.631 30.8329C312.817 30.9753 313.029 31.084 313.257 31.1537C313.501 31.2293 313.756 31.2669 314.013 31.2654C314.272 31.2675 314.529 31.2279 314.774 31.1481C314.997 31.0758 315.205 30.9671 315.389 30.8271C315.566 30.6905 315.717 30.5248 315.832 30.3378C315.952 30.1438 316.031 29.9293 316.064 29.7066C316.08 29.6276 316.087 29.5475 316.086 29.4672V24.4897H316.904V29.5429C316.905 29.6379 316.898 29.733 316.882 29.8268C316.843 30.1418 316.735 30.4454 316.564 30.7183C316.399 30.9838 316.183 31.2186 315.929 31.4112C315.668 31.608 315.373 31.7599 315.057 31.8598C314.723 31.9666 314.372 32.0203 314.019 32.0187Z" fill="#303030"/>
<path d="M319.391 31.9268H318.573V24.2603L324.257 30.0983V24.4846H325.075V32.1465L319.391 26.2887V31.9268Z" fill="#303030"/>
<path d="M330.541 32.0178C329.992 32.0215 329.448 31.9211 328.941 31.7225C327.962 31.343 327.18 30.6126 326.767 29.6904C326.448 28.9875 326.36 28.2097 326.516 27.4588C326.671 26.708 327.063 26.0191 327.639 25.4824C328.013 25.1365 328.455 24.8628 328.939 24.6769C329.447 24.4816 329.991 24.3829 330.539 24.3863C331.085 24.3716 331.629 24.4601 332.139 24.6466C332.579 24.823 332.987 25.0618 333.35 25.3547L332.822 26.0068C332.514 25.7513 332.166 25.5434 331.789 25.3906C331.391 25.2289 330.962 25.1473 330.529 25.1511C330.093 25.1482 329.662 25.2281 329.259 25.3859C328.875 25.5357 328.526 25.7556 328.231 26.0332C327.94 26.31 327.706 26.6367 327.543 26.9959C327.372 27.3725 327.286 27.7786 327.29 28.1884C327.287 28.6013 327.373 29.0102 327.543 29.3904C327.705 29.7548 327.939 30.087 328.231 30.3691C328.524 30.6487 328.871 30.8718 329.254 31.0259C329.654 31.1873 330.085 31.2689 330.519 31.2654C330.96 31.2635 331.397 31.1752 331.8 31.0061C332.201 30.8464 332.57 30.6205 332.887 30.3388L333.426 30.9502C332.639 31.6347 331.61 32.0162 330.541 32.0198V32.0178Z" fill="#303030"/>
<path d="M335.344 31.9272H334.526V24.4897H335.344V31.9272Z" fill="#303030"/>
<path d="M340.468 31.9272H336.926V24.4897H337.744V31.1634H340.855L340.468 31.9272Z" fill="#303030"/>
<path d="M233.747 36.8083L230.227 44.4294L226.718 36.8083L227.45 36.5026L230.217 42.5242L233.005 36.4922L233.747 36.8083Z" fill="#303030"/>
<path d="M235.759 44.1531H234.941V36.7156H235.759V44.1531Z" fill="#303030"/>
<path d="M238.17 44.1531H237.352V36.7156H240.316C240.402 36.7161 240.489 36.7227 240.574 36.7354C240.798 36.7612 241.015 36.8253 241.214 36.9247C241.41 37.0224 241.585 37.1537 241.73 37.3119C241.881 37.4792 241.998 37.6718 242.074 37.8797C242.241 38.3599 242.239 38.878 242.069 39.3571C241.988 39.5724 241.87 39.7735 241.72 39.9525C241.576 40.1232 241.402 40.2681 241.204 40.3804C240.93 40.5428 240.614 40.6312 240.291 40.6359C240.18 40.6391 240.024 40.6407 239.824 40.6407L242.364 43.8588L241.729 44.332L238.182 39.8995H239.765C239.801 39.8995 239.852 39.8995 239.921 39.8938L240.136 39.8844C240.208 39.8812 240.279 39.8742 240.35 39.8636C240.418 39.8531 240.47 39.8456 240.507 39.838C240.758 39.7566 240.976 39.6034 241.131 39.3998C241.301 39.1743 241.388 38.9023 241.378 38.6256C241.389 38.3522 241.297 38.084 241.119 37.8683C240.948 37.668 240.701 37.5384 240.431 37.5068C240.375 37.4929 240.316 37.486 240.258 37.486H238.17V44.1531Z" fill="#303030"/>
<path d="M246.008 44.1531H245.19V37.4898H243.09V36.7156H248.3L247.9 37.4898H246.006L246.008 44.1531Z" fill="#303030"/>
<path d="M252.11 44.2451C251.757 44.247 251.407 44.1936 251.072 44.087C250.756 43.9873 250.461 43.8354 250.2 43.6384C249.678 43.2434 249.331 42.6784 249.226 42.0538C249.21 41.96 249.203 41.865 249.204 41.77V36.7156H250.022V41.7131C250.02 41.7935 250.027 41.8739 250.044 41.9526C250.078 42.1705 250.156 42.38 250.276 42.5688C250.394 42.7552 250.546 42.9207 250.724 43.0581C250.91 43.2004 251.122 43.3092 251.35 43.379C251.594 43.4545 251.849 43.4923 252.106 43.4907C252.365 43.4929 252.622 43.4531 252.867 43.3733C253.09 43.301 253.298 43.1924 253.482 43.0525C253.659 42.9157 253.809 42.75 253.924 42.5631C254.044 42.369 254.123 42.1546 254.156 41.9318C254.172 41.8529 254.179 41.7726 254.178 41.6923V36.7146H254.996V41.769C254.997 41.8641 254.99 41.959 254.974 42.0529C254.935 42.3679 254.827 42.6716 254.656 42.9445C254.49 43.2098 254.275 43.4446 254.021 43.6374C253.761 43.8343 253.465 43.9861 253.149 44.0861C252.814 44.193 252.463 44.2467 252.11 44.2451Z" fill="#303030"/>
<path d="M258.097 41.7093L256.859 44.3689L256.138 44.0736L259.658 36.3909L263.2 44.0736L262.457 44.3689L261.23 41.7093H258.097ZM259.658 38.317L258.441 40.9256H260.863L259.658 38.317Z" fill="#303030"/>
<path d="M267.882 44.1531H264.34V36.7156H265.158V43.3892H268.269L267.882 44.1531Z" fill="#303030"/>
<path d="M277.343 44.1531H272.93V36.7156H277.612L277.203 37.4803H273.747V40.0074H277.147V40.7722H273.747V43.3903H277.347L277.343 44.1531Z" fill="#303030"/>
<path d="M282.445 44.246C281.896 44.2497 281.352 44.1493 280.845 43.9507C279.865 43.5712 279.084 42.8404 278.671 41.9175C278.352 41.2146 278.264 40.4367 278.42 39.6858C278.575 38.9349 278.967 38.246 279.543 37.7092C279.917 37.3634 280.359 37.0898 280.843 36.9037C281.351 36.7084 281.895 36.6096 282.443 36.6132C282.989 36.5984 283.533 36.6869 284.043 36.8735C284.482 37.0498 284.891 37.2885 285.254 37.5814L284.726 38.2337C284.418 37.978 284.069 37.7698 283.692 37.6165C283.294 37.4548 282.865 37.3732 282.432 37.377C281.996 37.3742 281.565 37.454 281.162 37.6118C280.778 37.7616 280.428 37.9816 280.134 38.2592C279.842 38.536 279.608 38.8626 279.445 39.2218C279.274 39.5984 279.188 40.0046 279.192 40.4144C279.189 40.8276 279.275 41.237 279.445 41.6175C279.607 41.9817 279.841 42.3135 280.134 42.5952C280.591 43.0312 281.176 43.3257 281.814 43.4395C282.451 43.5533 283.11 43.481 283.703 43.2323C284.104 43.0724 284.472 42.8464 284.79 42.5649L285.328 43.1764C284.541 43.8609 283.512 44.2424 282.443 44.246H282.445Z" fill="#303030"/>
<path d="M290.24 44.246C289.696 44.2499 289.156 44.1511 288.652 43.9554C288.174 43.7708 287.741 43.4973 287.377 43.1509C287.014 42.8034 286.726 42.3934 286.526 41.9431C286.213 41.2399 286.128 40.4645 286.281 39.7153C286.434 38.9661 286.819 38.2769 287.387 37.735C287.755 37.387 288.19 37.1085 288.668 36.9144C289.164 36.7123 289.7 36.6098 290.24 36.6134C290.771 36.6105 291.297 36.7072 291.789 36.8977C292.28 37.0883 292.727 37.3689 293.103 37.7236C293.471 38.0732 293.766 38.4864 293.97 38.9408C294.183 39.416 294.291 39.9276 294.287 40.4439C294.291 40.9553 294.183 41.4619 293.97 41.9318C293.657 42.6214 293.136 43.2085 292.473 43.6199C291.81 44.0312 291.033 44.2486 290.24 44.2451V44.246ZM290.229 43.4888C290.655 43.4911 291.076 43.4095 291.467 43.2493C292.236 42.9386 292.847 42.3583 293.173 41.6299C293.342 41.2583 293.428 40.8578 293.426 40.4534C293.429 40.0447 293.346 39.6395 293.184 39.2608C292.872 38.5239 292.264 37.9341 291.494 37.6204C291.095 37.4553 290.664 37.3719 290.229 37.3754C289.803 37.3729 289.381 37.4564 288.991 37.6204C288.61 37.7778 288.265 38.0028 287.974 38.283C287.683 38.5661 287.449 38.8979 287.286 39.2617C287.116 39.6366 287.03 40.0407 287.033 40.4486C287.029 41.2546 287.362 42.0293 287.959 42.6038C288.249 42.8813 288.595 43.1015 288.976 43.2513C289.372 43.4109 289.798 43.4929 290.229 43.4925V43.4888Z" fill="#303030"/>
<path d="M296.548 44.1551H295.73V36.488L301.414 42.3264V36.7115H302.232V44.3784L296.548 38.5193V44.1551Z" fill="#303030"/>
<path d="M307.7 44.246C307.155 44.2499 306.616 44.1511 306.112 43.9554C305.634 43.7707 305.201 43.4971 304.837 43.1509C304.475 42.8032 304.186 42.3933 303.986 41.9431C303.673 41.2399 303.588 40.4645 303.741 39.7153C303.894 38.9661 304.279 38.2769 304.847 37.735C305.215 37.3871 305.65 37.1085 306.128 36.9144C306.624 36.7122 307.16 36.6097 307.7 36.6134C308.231 36.6105 308.757 36.7072 309.249 36.8977C309.74 37.0883 310.187 37.3689 310.563 37.7236C310.931 38.0734 311.225 38.4866 311.43 38.9408C311.644 39.4159 311.752 39.9275 311.748 40.4439C311.752 40.9553 311.643 41.4619 311.43 41.9318C311.018 42.8445 310.245 43.5684 309.277 43.9488C308.778 44.1479 308.241 44.249 307.7 44.246ZM307.689 43.4888C308.115 43.4912 308.536 43.4096 308.927 43.2493C309.696 42.9387 310.307 42.3583 310.633 41.6299C310.802 41.2584 310.888 40.8578 310.886 40.4534C310.888 40.0447 310.806 39.6395 310.644 39.2608C310.331 38.524 309.723 37.9342 308.953 37.6204C308.554 37.4553 308.123 37.3718 307.688 37.3754C307.262 37.3729 306.84 37.4564 306.45 37.6204C306.069 37.7777 305.724 38.0027 305.433 38.2831C305.141 38.5661 304.908 38.8979 304.744 39.2617C304.574 39.6366 304.488 40.0407 304.491 40.4486C304.488 41.2544 304.82 42.0289 305.417 42.6038C305.707 42.8813 306.053 43.1014 306.434 43.2513C306.831 43.4112 307.258 43.4932 307.689 43.4925V43.4888Z" fill="#303030"/>
<path d="M313.997 44.155H313.179V36.488L316.861 41.3069L320.51 36.488V44.1503H319.692V39.0049L316.85 42.7238L313.997 39.0049V44.155Z" fill="#303030"/>
<path d="M324.999 44.1538H324.18V41.0059L321.726 36.8699L322.447 36.4714L324.578 40.0983L326.742 36.4714L327.452 36.8699L324.998 40.9955L324.999 44.1538Z" fill="#303030"/>
<path d="M211.782 38.3075C211.8 38.3173 211.814 38.3311 211.825 38.3476C211.836 38.3641 211.842 38.3828 211.843 38.4021C211.843 38.4526 211.81 38.4779 211.743 38.4779C211.714 38.4781 211.684 38.4716 211.658 38.459C211.534 38.3884 211.394 38.3478 211.25 38.3407C211.166 38.3395 211.083 38.3608 211.011 38.4021C210.412 39.1666 209.976 40.0349 209.729 40.9578C210.003 41.0037 210.28 41.0352 210.558 41.0524C210.62 41.0524 210.651 41.0732 210.651 41.1177C210.651 41.1621 210.62 41.1962 210.558 41.2123C210.24 41.2685 209.918 41.3043 209.595 41.3193C209.252 42.2651 208.963 43.2278 208.729 44.2032C208.595 44.7064 208.51 45.2203 208.478 45.7384C208.479 45.7774 208.483 45.8164 208.49 45.8549C208.497 45.8947 208.501 45.9348 208.502 45.975C208.502 46.0167 208.487 46.0366 208.457 46.0366C208.354 46.0103 208.257 45.9664 208.17 45.907C207.989 45.8073 207.911 45.6896 207.936 45.5539C208.245 44.1235 208.644 42.7117 209.129 41.3259C208.919 41.3391 208.792 41.3438 208.749 41.341C208.724 41.3392 208.7 41.3311 208.68 41.3177C208.659 41.3042 208.643 41.2858 208.632 41.2644C208.614 41.2274 208.6 41.1891 208.588 41.1499C208.588 41.1111 208.631 41.0827 208.717 41.0619C208.841 41.0341 208.965 41.0072 209.089 40.9813C209.203 40.9501 209.269 40.9085 209.289 40.8546C209.57 40.0213 209.912 39.2076 210.313 38.4192C210.518 38.0621 210.713 37.8832 210.9 37.8826C211.228 37.9496 211.532 38.096 211.782 38.3075Z" fill="#303030"/>
<path d="M212.836 41.6317C212.816 41.9384 212.758 42.2419 212.663 42.5357C212.533 43.0444 212.278 43.5167 211.918 43.9138C211.849 43.9928 211.762 44.057 211.665 44.1019C211.567 44.1468 211.461 44.1714 211.352 44.1741C211.246 44.1703 211.141 44.1534 211.04 44.1239C210.812 44.1181 210.594 44.0382 210.421 43.8977C210.337 43.827 210.272 43.739 210.23 43.6405C210.188 43.542 210.171 43.4357 210.179 43.3298C210.219 42.9397 210.318 42.557 210.474 42.1939C210.613 41.78 210.83 41.3934 211.114 41.0525C211.219 40.9399 211.306 40.884 211.373 40.884C211.464 40.884 211.613 40.9733 211.818 41.1519C211.874 41.1263 211.99 41.079 212.166 41.0099C212.23 40.9869 212.298 40.973 212.366 40.9683C212.471 40.9683 212.589 41.0613 212.718 41.2474C212.802 41.3595 212.843 41.4947 212.836 41.6317ZM212.371 41.7425C212.39 41.5712 212.399 41.4586 212.399 41.4169C212.399 41.3096 212.364 41.256 212.294 41.256C212.259 41.257 212.223 41.2621 212.189 41.2711L211.562 41.5115C211.522 41.5297 211.48 41.5439 211.437 41.5541C211.415 41.5541 211.393 41.5295 211.372 41.4813C211.183 41.7193 211.036 41.9841 210.935 42.2659C210.84 42.4995 210.767 42.7405 210.717 42.9862C210.689 43.1145 210.674 43.2451 210.672 43.3761C210.672 43.7693 210.8 43.9608 211.056 43.9507C211.176 43.9428 211.291 43.903 211.388 43.8361C211.68 43.6053 211.899 43.3036 212.023 42.9634C212.205 42.5762 212.321 42.1646 212.369 41.7434L212.371 41.7425Z" fill="#303030"/>
<path d="M215.517 41.1763C215.519 41.5004 215.471 41.823 215.375 42.1342C215.346 42.2288 215.305 42.2723 215.254 42.2723C215.159 42.2403 215.073 42.1878 215.003 42.119C214.972 42.0922 214.95 42.0565 214.941 42.0172C214.932 41.9779 214.937 41.9369 214.954 41.9003C215.02 41.7199 215.059 41.5316 215.068 41.341C215.068 41.2927 215.057 41.2681 215.035 41.2681C215.013 41.2681 214.95 41.3135 214.877 41.4063C214.313 42.1044 213.887 42.8932 213.619 43.7346C213.531 44.0078 213.455 44.1445 213.393 44.1445C213.282 44.11 213.175 44.0649 213.073 44.01C212.982 43.9675 212.951 43.8823 212.98 43.7583C213.155 42.9987 213.385 42.2515 213.668 41.5218C213.533 41.651 213.406 41.7878 213.288 41.9316C213.279 41.9462 213.266 41.9581 213.25 41.9663C213.235 41.9744 213.217 41.9784 213.199 41.9779C213.153 41.9779 213.13 41.958 213.13 41.9202C213.132 41.8919 213.144 41.8651 213.163 41.8436C213.297 41.6928 213.473 41.4631 213.693 41.1545C213.76 41.0422 213.827 40.986 213.893 40.986C213.997 41.0052 214.097 41.0418 214.188 41.094C214.272 41.1343 214.285 41.1892 214.229 41.2586C214.091 41.5093 213.979 41.7721 213.894 42.0432C213.738 42.4799 213.63 42.8223 213.57 43.0702C213.907 42.3464 214.326 41.6595 214.82 41.022C214.909 40.9093 214.98 40.8535 215.034 40.8535C215.11 40.8651 215.179 40.8981 215.234 40.9481C215.308 40.9506 215.381 40.9673 215.448 40.9974C215.474 41.0201 215.493 41.0481 215.505 41.0792C215.517 41.1102 215.521 41.1435 215.517 41.1763Z" fill="#303030"/>
<path d="M219.009 39.1696C219.085 39.2074 219.122 39.2511 219.122 39.2993C219.122 39.3334 219.097 39.3495 219.045 39.3495C219.028 39.3489 219.011 39.347 218.994 39.3438C218.978 39.3408 218.961 39.3389 218.944 39.3381C218.844 39.3381 218.718 39.4441 218.572 39.6561C218.35 40.0486 218.17 40.4608 218.034 40.8866C218.013 40.9425 218.004 40.9756 218.01 40.986C218.016 40.9964 218.053 41.0134 218.115 41.0172C218.328 41.029 218.542 41.0239 218.755 41.0021C218.846 40.9945 218.892 41.0315 218.892 41.1129C218.892 41.1687 218.857 41.2075 218.787 41.2161C218.717 41.2246 218.432 41.2463 217.893 41.2851C217.61 42.02 217.412 42.7815 217.302 43.5567C217.302 43.5898 217.302 43.6192 217.302 43.6447C217.302 43.7309 217.325 43.7745 217.371 43.7745C217.444 43.7745 217.663 43.6073 218.03 43.2728C218.046 43.2551 218.065 43.2405 218.086 43.23C218.108 43.2194 218.132 43.213 218.156 43.2112C218.17 43.2095 218.185 43.2128 218.197 43.2207C218.209 43.2286 218.218 43.2404 218.221 43.2539C218.224 43.2731 218.222 43.2927 218.216 43.3112C218.209 43.3297 218.199 43.3466 218.185 43.3609C217.99 43.6085 217.774 43.8414 217.541 44.0575C217.484 44.1204 217.405 44.1623 217.319 44.1758C217.216 44.1563 217.121 44.1097 217.044 44.0414C216.89 44.0029 216.813 43.9265 216.813 43.8123C216.813 43.7919 216.816 43.7716 216.821 43.7517C216.959 42.9295 217.155 42.117 217.407 41.3192C217.264 41.3022 217.135 41.2832 217.019 41.2662C217.007 41.2652 216.996 41.2619 216.985 41.2565C216.975 41.2511 216.966 41.2437 216.959 41.2348C216.951 41.2259 216.946 41.2157 216.943 41.2048C216.94 41.194 216.94 41.1826 216.942 41.1716C216.938 41.1473 216.944 41.1224 216.959 41.1022C216.974 41.0821 216.996 41.0683 217.022 41.0637C217.076 41.051 217.176 41.023 217.322 40.9794C217.413 40.951 217.5 40.9125 217.581 40.8648C217.75 40.2973 217.978 39.747 218.261 39.2217C218.355 39.0788 218.461 39.0078 218.561 39.0078C218.721 39.0289 218.875 39.0841 219.009 39.1696Z" fill="#303030"/>
<path d="M221.72 38.1127C221.735 38.1219 221.748 38.1343 221.757 38.149C221.766 38.1636 221.771 38.18 221.772 38.1969C221.772 38.2423 221.741 38.266 221.678 38.266C221.648 38.2655 221.619 38.2576 221.593 38.2432C221.507 38.1959 221.412 38.1659 221.314 38.1552C221.149 38.1552 220.966 38.3108 220.764 38.6219C219.963 39.9558 219.427 41.4172 219.182 42.9339C219.558 42.2143 220.069 41.5654 220.691 41.0192C220.761 40.9436 220.855 40.8902 220.958 40.8659C221.029 40.8939 221.096 40.9301 221.158 40.9738C221.242 41.0026 221.323 41.0385 221.401 41.0808C221.44 41.1219 221.47 41.1706 221.488 41.2234C221.506 41.2763 221.512 41.3322 221.506 41.3874C221.506 41.432 221.503 41.4765 221.498 41.5208C221.426 42.0839 221.287 42.6375 221.085 43.1715C221.169 43.0642 221.302 42.9065 221.485 42.6982C221.511 42.664 221.55 42.6406 221.594 42.633C221.623 42.633 221.639 42.6491 221.639 42.6822C221.635 42.7294 221.617 42.7745 221.586 42.8118C221.429 43.0263 221.222 43.3418 220.963 43.7583C220.941 43.798 220.889 43.9059 220.805 44.0791C220.77 44.1605 220.722 44.2021 220.659 44.2021C220.548 44.1845 220.444 44.138 220.359 44.0678C220.305 44.0318 220.295 43.9757 220.33 43.8993C220.704 43.1155 220.952 42.2832 221.066 41.43C221.074 41.2739 221.051 41.1962 220.997 41.1962C220.913 41.2224 220.837 41.2667 220.775 41.3258C220.483 41.5749 220.226 41.8579 220.01 42.1682C219.628 42.67 219.316 43.2169 219.084 43.7951C219.025 43.9535 218.969 44.0328 218.918 44.0328C218.815 44.0027 218.722 43.9486 218.647 43.8756C218.611 43.8409 218.586 43.7976 218.574 43.7505C218.562 43.7034 218.564 43.654 218.579 43.6077C218.832 42.1865 219.242 40.7944 219.801 39.4538C220.021 38.8395 220.363 38.2702 220.808 37.7766C220.866 37.7176 220.946 37.6821 221.031 37.6772C221.138 37.6896 221.238 37.7322 221.318 37.7994L221.72 38.1127Z" fill="#303030"/>
<path d="M223.896 42.9644C223.241 43.7582 222.78 44.155 222.512 44.155C222.326 44.1267 222.157 44.0389 222.031 43.9062C221.831 43.8166 221.731 43.6967 221.731 43.5465C221.731 43.517 221.734 43.4875 221.739 43.4585C221.801 43.0636 221.901 42.6752 222.039 42.2981C221.939 42.2498 221.889 42.2035 221.889 42.1599C221.889 42.1164 221.917 42.106 221.974 42.106C222.021 42.1069 222.067 42.1189 222.108 42.141C222.273 41.7534 222.49 41.3877 222.755 41.0534C222.879 40.9108 222.991 40.8393 223.091 40.8386C223.209 40.8605 223.323 40.8978 223.43 40.9493C223.417 40.8726 223.44 40.8282 223.499 40.8149H223.689C223.805 40.8149 223.863 40.8349 223.863 40.8727C223.861 40.8947 223.857 40.9165 223.851 40.938C223.843 40.9706 223.839 41.0039 223.839 41.0374C223.839 41.1295 223.839 41.2433 223.839 41.379C223.839 41.5134 223.839 41.6052 223.839 41.6506C223.854 41.7739 223.836 41.8987 223.788 42.0141C223.74 42.1296 223.664 42.2323 223.564 42.3132C223.4 42.427 223.202 42.4875 222.998 42.4855C222.812 42.4747 222.628 42.4465 222.448 42.4013C222.378 42.5494 222.326 42.7047 222.294 42.8641C222.224 43.1165 222.189 43.3763 222.189 43.6373C222.189 43.7708 222.236 43.8371 222.323 43.8371C222.366 43.8355 222.409 43.8278 222.449 43.8143C222.947 43.5797 223.391 43.2542 223.755 42.8565C223.769 42.8421 223.785 42.8303 223.803 42.8218C223.821 42.8134 223.841 42.8085 223.861 42.8073C223.912 42.8073 223.938 42.83 223.938 42.8764C223.935 42.9095 223.921 42.9406 223.896 42.9644ZM223.422 41.2721C223.422 41.1727 223.399 41.1225 223.354 41.1225C223.305 41.1306 223.26 41.1521 223.224 41.1841C222.898 41.474 222.656 41.8393 222.524 42.2441C222.578 42.2517 222.672 42.2592 222.807 42.2668C222.895 42.277 222.984 42.2697 223.068 42.2454C223.152 42.2211 223.23 42.1804 223.297 42.1258C223.388 42.019 223.436 41.8845 223.43 41.7472C223.427 41.8769 223.423 41.7189 223.423 41.2721H223.422Z" fill="#303030"/>
<path d="M194.672 0H193.476V68.8145H194.672V0Z" fill="#008779"/>
<path d="M78.2819 20.4006H74.8379V48.4133H78.2819V20.4006Z" fill="#303030"/>
<path d="M104.902 48.754C100.82 48.7819 96.8923 47.2749 93.983 44.5639C91.2864 41.8212 89.8071 38.2022 89.8513 34.4559C89.8955 30.7096 91.4597 27.1226 94.2203 24.4376C96.9808 21.7525 100.726 20.1747 104.682 20.0308C108.637 19.8869 112.5 21.1878 115.47 23.6644L115.616 23.7827L113.408 26.5133L113.245 26.3762C110.951 24.3943 107.968 23.2798 104.862 23.2451C103.313 23.2426 101.779 23.529 100.347 24.0877C98.9149 24.6464 97.6133 25.4666 96.5162 26.5014C94.3005 28.5914 93.0528 31.4289 93.0475 34.3896C93.0422 37.3503 94.2798 40.1917 96.4879 42.2888C98.6961 44.3859 101.694 45.5669 104.822 45.572C108.05 45.485 111.131 44.2781 113.48 42.1807L113.637 42.0405L115.896 44.6065L115.758 44.7296C112.792 47.2998 108.923 48.7342 104.902 48.754Z" fill="#303030"/>
<path d="M124.576 20.4006H128.259L138.039 41.6875L147.878 20.4006H151.621L138.078 49.7224L124.576 20.4006Z" fill="#303030"/>
<path d="M162.375 48.4133V20.3967H180.298L178.573 23.6149H165.819V32.6189H178.455V35.8371H165.819V45.182H179.175V48.4002L162.375 48.4133Z" fill="#303030"/>
<path d="M30.9429 35.8229V65.8687L58.4339 50.8457V20.8L30.9429 35.8229ZM51.9949 47.3267L37.3789 55.3122V39.342L51.9909 31.3573L51.9949 47.3267Z" fill="#00B09E"/>
<path d="M27.491 35.8228L0 20.8V50.8476L27.491 65.8704V35.8228ZM21.052 55.3112L6.44001 47.3266V31.3563L21.052 39.341V55.3112Z" fill="#00B09E"/>
<path d="M29.2171 2.94727L1.72607 17.9701L29.218 32.988L56.709 17.9653L29.2171 2.94727ZM29.2171 25.9546L14.6051 17.9701L29.2171 9.98542L43.829 17.9701L29.2171 25.9546Z" fill="#00D6BF"/>
<path d="M10.419 24.6078L12.145 23.6613L18.584 27.1804L16.858 28.1269V41.6363L21.051 43.9278V50.966L10.418 45.1554L10.419 24.6078ZM18.585 20.145L25.024 23.6641L29.217 21.3726L41.576 28.1269V30.0132L48.012 26.4923V24.6058L29.212 14.3325L18.585 20.145ZM27.492 47.444V54.4822L29.218 55.4287L48.018 45.1563V33.5361L41.579 37.0552V41.6363L29.22 48.3896L27.492 47.444Z" fill="#008779"/>
</svg>
