<svg width="58" height="58" viewBox="0 0 58 58" fill="none" xmlns="http://www.w3.org/2000/svg">
<circle cx="28.8392" cy="28.8392" r="28.8392" fill="#008779"/>
<path d="M39.6613 32.7559V20.4376C39.6613 18.5421 38.1418 17 36.2742 17H15.3871C13.5195 17 12 18.5421 12 20.4376V32.7559C12 34.6514 13.5195 36.1935 15.3871 36.1935H18.4274L18.4922 39.2974C18.5116 40.2299 19.5667 40.7498 20.3006 40.1882L25.5212 36.1936H36.2742C38.1418 36.1935 39.6613 34.6514 39.6613 32.7559ZM25.1433 33.9018C24.8981 33.9018 24.6596 33.9828 24.4637 34.1327L20.703 37.0102L20.6615 35.0234C20.6485 34.4002 20.147 33.9018 19.5328 33.9018H15.3871C14.7646 33.9018 14.2581 33.3878 14.2581 32.756V20.4377C14.2581 19.8059 14.7646 19.2918 15.3871 19.2918H36.2742C36.8967 19.2918 37.4032 19.8059 37.4032 20.4377V32.756C37.4032 33.3878 36.8967 33.9018 36.2742 33.9018H25.1433V33.9018ZM47 27.5994V37.0529C47 38.9485 45.4806 40.4906 43.6129 40.4906H40.5678L40.5077 42.8832C40.492 43.5058 39.9893 43.9999 39.3791 43.9999C38.9285 43.9999 39.1794 44.0791 33.5324 40.4906H28.371C27.7474 40.4906 27.2419 39.9776 27.2419 39.3447C27.2419 38.7118 27.7474 38.1988 28.371 38.1988C34.3595 38.1988 34.0797 38.1345 34.4558 38.3734L38.3008 40.8168L38.3385 39.3154C38.3542 38.6941 38.8548 38.1988 39.4672 38.1988H43.6129C44.2354 38.1988 44.7419 37.6847 44.7419 37.0529V27.5993C44.7419 26.9675 44.2354 26.4535 43.6129 26.4535C42.9893 26.4535 42.4839 25.9405 42.4839 25.3076C42.4839 24.6747 42.9893 24.1617 43.6129 24.1617C45.4806 24.1618 47 25.7038 47 27.5994ZM32.8871 24.5199C32.8871 25.1527 32.3816 25.6657 31.7581 25.6657H19.9032C19.2796 25.6657 18.7742 25.1527 18.7742 24.5199C18.7742 23.887 19.2796 23.374 19.9032 23.374H31.7581C32.3816 23.374 32.8871 23.887 32.8871 24.5199ZM30.8407 29.5331C30.8407 30.166 30.3353 30.679 29.7117 30.679H21.9496C21.326 30.679 20.8206 30.166 20.8206 29.5331C20.8206 28.9002 21.326 28.3872 21.9496 28.3872H29.7117C30.3353 28.3872 30.8407 28.9002 30.8407 29.5331Z" fill="white"/>
</svg>
