<svg width="58" height="58" viewBox="0 0 58 58" fill="none" xmlns="http://www.w3.org/2000/svg">
<circle cx="28.8392" cy="28.8392" r="28.8392" fill="#008779"/>
<path d="M42.8125 16H15.1875C13.4298 16 12 17.4578 12 19.25V38.75C12 40.5422 13.4298 42 15.1875 42H42.8125C44.5702 42 46 40.5422 46 38.75V19.25C46 17.4578 44.5702 16 42.8125 16ZM42.8125 18.1667C42.9568 18.1667 43.0942 18.1972 43.2197 18.2505L29 30.8165L14.7802 18.2505C14.9058 18.1973 15.0431 18.1667 15.1875 18.1667H42.8125ZM42.8125 39.8333H15.1875C14.6013 39.8333 14.125 39.3477 14.125 38.7499V20.5396L28.3038 33.0688C28.504 33.2455 28.752 33.3333 29 33.3333C29.248 33.3333 29.496 33.2455 29.6962 33.0688L43.875 20.5396V38.75C43.8749 39.3477 43.3987 39.8333 42.8125 39.8333Z" fill="white"/>
</svg>
