<svg width="58" height="58" viewBox="0 0 58 58" fill="none" xmlns="http://www.w3.org/2000/svg">
<circle cx="28.8392" cy="28.8392" r="28.8392" fill="#008779"/>
<path d="M31.941 12.7648H26.0587C25.734 12.7648 25.4705 13.0283 25.4705 13.353C25.4705 13.6777 25.734 13.9412 26.0587 13.9412H31.941C32.2657 13.9412 32.5292 13.6777 32.5292 13.353C32.5292 13.0283 32.2657 12.7648 31.941 12.7648Z" fill="white"/>
<path d="M29.7307 41H28.2701C27.3754 41 26.6472 41.7282 26.6472 42.6229V42.907C26.6472 43.8017 27.3754 44.5294 28.2696 44.5294H29.7301C30.6248 44.5294 31.353 43.8017 31.353 42.907V42.6229C31.353 41.7282 30.6248 41 29.7307 41ZM30.1766 42.907C30.1766 43.1529 29.9766 43.3529 29.7308 43.3529H28.2701C28.0237 43.3529 27.8236 43.1529 27.8236 42.907V42.6229C27.8236 42.3765 28.0236 42.1764 28.2701 42.1764H29.7301C29.9766 42.1764 30.1766 42.3764 30.1766 42.6229V42.907Z" fill="white"/>
<path d="M36.8741 11H21.1265C19.9541 11 19 11.9541 19 13.1265V44.1676C19 45.3399 19.9541 46.294 21.1265 46.294H36.8735C38.0458 46.294 38.9999 45.3399 38.9999 44.1682V13.1265C39 11.9541 38.0459 11 36.8741 11ZM37.8235 44.1676C37.8235 44.6911 37.3976 45.1175 36.8741 45.1175H21.1265C20.6024 45.1175 20.1765 44.6911 20.1765 44.1681V13.1265C20.1765 12.6029 20.6024 12.1765 21.1265 12.1765H36.8735C37.3976 12.1765 37.8234 12.603 37.8234 13.1265V44.1676H37.8235Z" fill="white"/>
<path d="M38.4117 14.5294H19.5882C19.2635 14.5294 19 14.793 19 15.1176V39.8235C19 40.1481 19.2635 40.4117 19.5882 40.4117H38.4117C38.7364 40.4117 38.9999 40.1481 38.9999 39.8235V15.1176C38.9999 14.793 38.7364 14.5294 38.4117 14.5294ZM37.8234 39.2352H20.1764V15.7059H37.8234V39.2352Z" fill="white"/>
</svg>
